<svg width="118" height="22" viewBox="0 0 118 22" fill="none" xmlns="http://www.w3.org/2000/svg">
<path d="M1.66 20C0.629825 18.4735 0.137249 16.6475 0.26 14.81V7.31C0.130049 5.45899 0.615179 3.61689 1.64 2.07C2.56666 0.876668 4.15 0.283336 6.39 0.290003C8.63 0.29667 10.1467 0.820003 10.94 1.86C11.9073 3.14879 12.3793 4.74228 12.27 6.35V8.11H8.13V6.2C8.12442 5.69745 8.08096 5.19603 8 4.7C7.94994 4.34092 7.78507 4.00766 7.53 3.75C7.37254 3.61497 7.18973 3.5127 6.99227 3.44917C6.79481 3.38563 6.58665 3.36212 6.38 3.38C6.0832 3.33571 5.77997 3.38395 5.51157 3.51815C5.24317 3.65235 5.02264 3.86599 4.88 4.13C4.61706 4.83228 4.50134 5.58112 4.54 6.33V15.85C4.49438 16.6038 4.62803 17.3578 4.93 18.05C5.07428 18.2997 5.28838 18.5019 5.54598 18.6315C5.80358 18.7612 6.09346 18.8128 6.38 18.78C6.66155 18.8198 6.9485 18.7697 7.1999 18.6368C7.45129 18.5039 7.65431 18.2951 7.78 18.04C8.02189 17.3364 8.12711 16.5931 8.08999 15.85V13.85H12.23V15.58C12.3519 17.2114 11.9184 18.8361 11 20.19C10.12 21.29 8.6 21.83 6.44 21.83C4.28 21.83 2.59 21.23 1.66 20Z" fill="#111111"/>
<path d="M17.91 0.580002H22.65L26.65 21.58H22.71L22 16.94H18.68L17.88 21.55H13.88L17.91 0.580002ZM21.56 14.3L20.3 5.86L19.05 14.3H21.56Z" fill="#111111"/>
<path d="M29.72 3.74H26.48V0.580002H37.2V3.74H34V21.55H29.71L29.72 3.74Z" fill="#111111"/>
<path d="M45.61 0.580002H53.74V2.76H48.54V9.69H52.76V11.76H48.54V19.45H53.79V21.55H45.61V0.580002Z" fill="#444444"/>
<path d="M56.15 0.580002H58.15L64.15 14.51V0.580002H66.59V21.58H64.72L58.72 7.26V21.55H56.24L56.15 0.580002Z" fill="#444444"/>
<path d="M69.82 0.580002H77.94V2.76H72.74V9.69H77V11.76H72.78V19.45H78V21.55H69.82V0.580002Z" fill="#444444"/>
<path d="M80.35 0.579998H84.57C86.233 0.446176 87.8892 0.910749 89.24 1.89C90.24 2.76 90.73 4.18 90.73 6.15C90.73 8.81666 89.8667 10.4467 88.14 11.04L91.14 21.55H88.3L85.55 11.71H83.28V21.55H80.35V0.579998ZM84.35 9.58C85.3134 9.67321 86.2767 9.40205 87.05 8.82C87.3643 8.44808 87.5991 8.01581 87.7401 7.54976C87.8812 7.08372 87.9253 6.59375 87.87 6.11C87.8901 5.43156 87.792 4.75479 87.58 4.11C87.494 3.87225 87.3612 3.65416 87.1895 3.46865C87.0177 3.28314 86.8104 3.13398 86.58 3.03C85.9308 2.76366 85.2308 2.64414 84.53 2.68H83.24V9.62L84.35 9.58Z" fill="#444444"/>
<path d="M94.67 20C93.7142 18.3866 93.2712 16.5208 93.4 14.65V7.65C93.3655 6.29916 93.5341 4.9508 93.9 3.65C94.1888 2.67205 94.8026 1.8219 95.64 1.24C96.651 0.630745 97.8213 0.338179 99 0.4C99.7625 0.327488 100.532 0.422365 101.254 0.678C101.976 0.933634 102.633 1.34386 103.18 1.88C104.139 3.22404 104.593 4.864 104.46 6.51V7.29H101.71V6.64C101.729 5.86257 101.668 5.08524 101.53 4.32C101.439 3.82957 101.168 3.39088 100.77 3.09C100.251 2.78364 99.6515 2.64077 99.05 2.68C98.3968 2.62412 97.7475 2.825 97.24 3.24C96.8253 3.63351 96.5542 4.15453 96.47 4.72C96.3433 5.54373 96.2865 6.37669 96.3 7.21V15C96.2206 16.1837 96.4228 17.3695 96.89 18.46C97.1614 18.7954 97.5058 19.0643 97.897 19.2461C98.2882 19.428 98.7157 19.5181 99.147 19.5094C99.5784 19.5007 100.002 19.3935 100.386 19.196C100.769 18.9986 101.102 18.716 101.36 18.37C101.842 17.2166 102.051 15.9674 101.97 14.72V13.24H99.31V11.17H104.61V21.55H102.8L102.51 19.14C102.281 19.9407 101.788 20.6403 101.11 21.125C100.433 21.6098 99.6118 21.8512 98.78 21.81C97.9979 21.879 97.2111 21.7492 96.4926 21.4328C95.7741 21.1163 95.1471 20.6235 94.67 20Z" fill="#444444"/>
<path d="M110.69 14.15L106.16 0.580002H108.88L112.09 10.7L115.25 0.580002H118L113.5 14.15V21.55H110.7L110.69 14.15Z" fill="#444444"/>
</svg>
